<svg width="410" height="40" viewBox="0 0 410 40" fill="none" xmlns="http://www.w3.org/2000/svg">
<path fill-rule="evenodd" clip-rule="evenodd" d="M0.0457764 2.72121H14.7901C22.9911 2.72121 27.2792 6.96133 27.2792 12.1684C27.2792 15.7629 25.2523 18.2043 22.4415 19.4955V19.5886C26.036 20.8799 28.063 23.7356 28.063 27.3752C28.063 32.5822 24.0541 37.1437 15.3907 37.1437H0.0457764V2.72121ZM14.3307 16.3605C16.772 16.3605 17.8801 15.1173 17.8801 13.7329C17.8801 12.3486 16.775 11.0603 14.3307 11.0603H10.0005V16.3605H14.3307ZM14.4688 28.8016C17.0483 28.8016 18.2945 27.5584 18.2945 25.9458C18.2945 24.3332 17.0033 23.09 14.5168 23.09H10.0005V28.8046H14.4688V28.8016ZM30.1801 23.1351V2.72121H40.2248V23.042C40.2248 26.8677 42.1137 28.8947 45.3388 28.8947C48.5639 28.8947 50.5909 26.8677 50.5909 22.9969V2.72121H60.6837V23.1351C60.6837 31.7985 54.8791 38.0205 45.3388 38.0205C35.7985 38.0205 30.1771 31.7985 30.1771 23.1351H30.1801ZM86.2596 4.37882V13.2254C84.0945 11.7059 80.4069 10.6459 77.413 10.6459C74.6953 10.6459 73.311 11.5228 73.311 12.6729C73.311 13.823 74.8305 14.4236 77.5511 15.3905C82.1606 17.0031 88.4247 19.1682 88.4247 26.4953C88.4247 33.0387 83.4939 37.8764 74.8305 37.8764C70.3621 37.8764 66.2601 36.5851 63.7257 34.8825V25.5734C66.2151 27.6004 69.9928 29.213 73.6323 29.213C76.7193 29.213 78.1487 28.0598 78.1487 26.7716C78.1487 25.114 75.7974 24.3753 72.9867 23.3603C69.2991 22.024 63.4494 19.6276 63.4494 12.9461C63.4494 6.91028 68.197 1.97949 76.6742 1.97949C80.4069 1.97949 83.7701 2.94643 86.2596 4.37582V4.37882ZM91.0042 2.72121H101.049V37.1437H91.0042V2.72121ZM136.763 37.1437H127.177L114.781 18.6667H114.736V37.1437H105.199V2.72121H114.784L127.18 20.8769H127.225V2.72121H136.763V37.1437ZM140.91 2.72121H164.687V11.6609H150.954V15.8079H163.302V23.9188H150.954V28.204H164.687V37.1437H140.91V2.72121ZM189.893 4.37882V13.2254C187.728 11.7059 184.041 10.6459 181.047 10.6459C178.329 10.6459 176.945 11.5228 176.945 12.6729C176.945 13.823 178.464 14.4236 181.185 15.3905C185.794 17.0031 192.058 19.1682 192.058 26.4953C192.058 33.0387 187.128 37.8764 178.464 37.8764C173.996 37.8764 169.894 36.5851 167.359 34.8825V25.5734C169.849 27.6004 173.626 29.213 177.266 29.213C180.353 29.213 181.782 28.0598 181.782 26.7716C181.782 25.114 179.431 24.3753 176.62 23.3603C172.933 22.024 167.083 19.6276 167.083 12.9461C167.083 6.91028 171.831 1.97949 180.308 1.97949C184.041 1.97949 187.404 2.94643 189.893 4.37582V4.37882ZM216.481 4.37882V13.2254C214.316 11.7059 210.628 10.6459 207.635 10.6459C204.917 10.6459 203.533 11.5228 203.533 12.6729C203.533 13.823 205.052 14.4236 207.773 15.3905C212.382 17.0031 218.646 19.1682 218.646 26.4953C218.646 33.0387 213.715 37.8764 205.052 37.8764C200.584 37.8764 196.482 36.5851 193.947 34.8825V25.5734C196.437 27.6004 200.214 29.213 203.854 29.213C206.941 29.213 208.37 28.0598 208.37 26.7716C208.37 25.114 206.019 24.3753 203.208 23.3603C199.521 22.024 193.671 19.6276 193.671 12.9461C193.671 6.91028 198.419 1.97949 206.896 1.97949C210.628 1.97949 213.992 2.94643 216.481 4.37582V4.37882ZM230.286 37.2097H240.33V2.79028H230.286V37.2127V37.2097ZM276.038 2.79028H266.501V20.9459H266.456L254.06 2.79028H244.474V37.2127H254.012V18.7358H254.057L266.453 37.2127H276.038V2.79028ZM292.206 2.05156C283.725 2.05156 278.981 6.98235 278.981 13.0182C278.981 19.6997 284.834 22.096 288.518 23.4323C291.329 24.4473 293.68 25.183 293.68 26.8437C293.68 28.1349 292.251 29.285 289.164 29.285C285.524 29.285 281.744 27.6725 279.257 25.6455V34.9545C281.792 36.6602 285.894 37.9485 290.362 37.9485C299.025 37.9485 303.956 33.1108 303.956 26.5674C303.956 19.2403 297.689 17.0752 293.083 15.4626C290.365 14.4957 288.842 13.9431 288.842 12.745C288.842 11.5468 290.224 10.718 292.944 10.718C295.938 10.718 299.626 11.778 301.791 13.2975V4.44789C299.302 3.0185 295.938 2.05156 292.206 2.05156ZM306.301 37.2097H316.346V2.79028H306.301V37.2127V37.2097ZM330.538 28.1319H332.475C337.682 28.1319 341.045 25.183 341.045 20.021C341.045 14.859 337.682 11.8651 332.475 11.8651H330.538V28.1319ZM351.183 20.021C351.183 30.3901 343.348 37.2097 332.105 37.2097H320.493V2.79028H332.105C343.348 2.79028 351.183 9.65495 351.183 20.024V20.021ZM353.907 37.2097H377.684V28.27H363.951V23.9849H376.299V15.874H363.951V11.727H377.684V2.79028H353.907V37.2127V37.2097ZM393.494 19.0541C396.029 19.0541 398.011 17.8559 398.011 15.4596C398.011 13.0633 396.029 11.8651 393.449 11.8651H391.329V19.0541H393.494ZM409.944 37.2097H398.101L391.557 26.5644H391.326V37.2097H381.281V2.79028H393.539C402.158 2.79028 408.145 6.616 408.145 14.7719C408.145 17.9971 406.716 22.6966 401.001 25.093L409.941 37.2127L409.944 37.2097Z" fill="#0A0A0A"/>
</svg>
