<svg width="16" height="18" viewBox="0 0 16 18" fill="none" xmlns="http://www.w3.org/2000/svg">
<g clip-path="url(#clip0_5145_12105)">
<g clip-path="url(#clip1_5145_12105)">
<path d="M5.20508 13.916C4.5918 13.916 4.13086 13.7637 3.82227 13.459C3.51758 13.1582 3.36523 12.7051 3.36523 12.0996V6.16993C3.36523 5.56446 3.51758 5.11134 3.82227 4.81056C4.13086 4.50587 4.5918 4.35353 5.20508 4.35353H13.7539C14.3633 4.35353 14.8203 4.50587 15.125 4.81056C15.4336 5.11524 15.5879 5.56837 15.5879 6.16993V12.0996C15.5879 12.7012 15.4336 13.1543 15.125 13.459C14.8203 13.7637 14.3633 13.916 13.7539 13.916H5.20508ZM5.2168 12.9727H13.7363C14.0254 12.9727 14.248 12.8945 14.4043 12.7383C14.5645 12.582 14.6445 12.3516 14.6445 12.0469V6.22267C14.6445 5.91798 14.5645 5.68751 14.4043 5.53126C14.248 5.37501 14.0254 5.29689 13.7363 5.29689H5.2168C4.92383 5.29689 4.69922 5.37501 4.54297 5.53126C4.38672 5.68751 4.30859 5.91798 4.30859 6.22267V12.0469C4.30859 12.3516 4.38672 12.582 4.54297 12.7383C4.69922 12.8945 4.92383 12.9727 5.2168 12.9727ZM2.24609 11.2031C1.63281 11.2031 1.17188 11.0527 0.863281 10.752C0.558594 10.4473 0.40625 9.9922 0.40625 9.38673V3.45704C0.40625 2.85157 0.558594 2.39845 0.863281 2.09767C1.17188 1.79298 1.63281 1.64062 2.24609 1.64062H10.7949C11.4043 1.64062 11.8613 1.79298 12.166 2.09767C12.4746 2.40235 12.6289 2.85548 12.6289 3.45704V4.73439H11.6855V3.50978C11.6855 3.20509 11.6055 2.97462 11.4453 2.81837C11.2891 2.66212 11.0664 2.58399 10.7773 2.58399H2.25781C1.96484 2.58399 1.74023 2.66212 1.58398 2.81837C1.42773 2.97462 1.34961 3.20509 1.34961 3.50978V9.33399C1.34961 9.63868 1.42773 9.86915 1.58398 10.0254C1.74023 10.1816 1.96484 10.2598 2.25781 10.2598H3.74609V11.2031H2.24609ZM7.25586 9.6211C7.10742 9.6211 6.98633 9.57618 6.89258 9.48634C6.79883 9.39649 6.75195 9.28126 6.75195 9.14063C6.75195 8.9922 6.79688 8.87306 6.88672 8.78321C6.98047 8.68946 7.10352 8.64259 7.25586 8.64259H11.7207C11.8691 8.64259 11.9883 8.68946 12.0781 8.78321C12.1719 8.87306 12.2188 8.9922 12.2188 9.14063C12.2188 9.28126 12.1719 9.39649 12.0781 9.48634C11.9844 9.57618 11.8652 9.6211 11.7207 9.6211H7.25586ZM9.47656 11.8652C9.33203 11.8652 9.21484 11.8203 9.125 11.7305C9.03906 11.6367 8.99609 11.5156 8.99609 11.3672V6.90235C8.99609 6.75392 9.03906 6.63282 9.125 6.53907C9.21484 6.44532 9.33203 6.39845 9.47656 6.39845C9.625 6.39845 9.74414 6.44532 9.83398 6.53907C9.92773 6.63282 9.97461 6.75392 9.97461 6.90235V11.3672C9.97461 11.5156 9.92773 11.6367 9.83398 11.7305C9.74414 11.8203 9.625 11.8652 9.47656 11.8652Z" fill="black"/>
</g>
</g>
<defs>
<clipPath id="clip0_5145_12105">
<rect width="16" height="16" fill="white"/>
</clipPath>
<clipPath id="clip1_5145_12105">
<rect width="16" height="16" fill="white"/>
</clipPath>
</defs>
</svg>
