<svg width="203" height="41" viewBox="0 0 203 41" fill="none" xmlns="http://www.w3.org/2000/svg">
<path d="M9.72656 9.33594V13.5C9.58594 13.7083 9.36198 13.9427 9.05469 14.2031C8.7474 14.4583 8.32292 14.6823 7.78125 14.875C7.24479 15.0625 6.55208 15.1562 5.70312 15.1562C5.01042 15.1562 4.3724 15.0365 3.78906 14.7969C3.21094 14.5521 2.70833 14.1979 2.28125 13.7344C1.85938 13.2656 1.53125 12.6979 1.29688 12.0312C1.06771 11.3594 0.953125 10.599 0.953125 9.75V8.86719C0.953125 8.01823 1.05208 7.26042 1.25 6.59375C1.45312 5.92708 1.75 5.36198 2.14062 4.89844C2.53125 4.42969 3.01042 4.07552 3.57812 3.83594C4.14583 3.59115 4.79688 3.46875 5.53125 3.46875C6.40104 3.46875 7.1276 3.61979 7.71094 3.92188C8.29948 4.21875 8.75781 4.63021 9.08594 5.15625C9.41927 5.68229 9.63281 6.28125 9.72656 6.95312H8.21875C8.15104 6.54167 8.01562 6.16667 7.8125 5.82812C7.61458 5.48958 7.33073 5.21875 6.96094 5.01562C6.59115 4.80729 6.11458 4.70312 5.53125 4.70312C5.00521 4.70312 4.54948 4.79948 4.16406 4.99219C3.77865 5.1849 3.46094 5.46094 3.21094 5.82031C2.96094 6.17969 2.77344 6.61458 2.64844 7.125C2.52865 7.63542 2.46875 8.21094 2.46875 8.85156V9.75C2.46875 10.4062 2.54427 10.9922 2.69531 11.5078C2.85156 12.0234 3.07292 12.4635 3.35938 12.8281C3.64583 13.1875 3.98698 13.4609 4.38281 13.6484C4.78385 13.8359 5.22656 13.9297 5.71094 13.9297C6.2474 13.9297 6.68229 13.8854 7.01562 13.7969C7.34896 13.7031 7.60938 13.5938 7.79688 13.4688C7.98438 13.3385 8.1276 13.2161 8.22656 13.1016V10.5547H5.59375V9.33594H9.72656ZM15.5156 15.1562C14.9271 15.1562 14.3932 15.0573 13.9141 14.8594C13.4401 14.6562 13.0312 14.3724 12.6875 14.0078C12.349 13.6432 12.0885 13.2109 11.9062 12.7109C11.724 12.2109 11.6328 11.6641 11.6328 11.0703V10.7422C11.6328 10.0547 11.7344 9.44271 11.9375 8.90625C12.1406 8.36458 12.4167 7.90625 12.7656 7.53125C13.1146 7.15625 13.5104 6.8724 13.9531 6.67969C14.3958 6.48698 14.8542 6.39062 15.3281 6.39062C15.9323 6.39062 16.4531 6.49479 16.8906 6.70312C17.3333 6.91146 17.6953 7.20312 17.9766 7.57812C18.2578 7.94792 18.4661 8.38542 18.6016 8.89062C18.737 9.39062 18.8047 9.9375 18.8047 10.5312V11.1797H12.4922V10H17.3594V9.89062C17.3385 9.51562 17.2604 9.15104 17.125 8.79688C16.9948 8.44271 16.7865 8.15104 16.5 7.92188C16.2135 7.69271 15.8229 7.57812 15.3281 7.57812C15 7.57812 14.6979 7.64844 14.4219 7.78906C14.1458 7.92448 13.9089 8.1276 13.7109 8.39844C13.513 8.66927 13.3594 9 13.25 9.39062C13.1406 9.78125 13.0859 10.2318 13.0859 10.7422V11.0703C13.0859 11.4714 13.1406 11.849 13.25 12.2031C13.3646 12.5521 13.5286 12.8594 13.7422 13.125C13.9609 13.3906 14.224 13.599 14.5312 13.75C14.8438 13.901 15.1979 13.9766 15.5938 13.9766C16.1042 13.9766 16.5365 13.8724 16.8906 13.6641C17.2448 13.4557 17.5547 13.1771 17.8203 12.8281L18.6953 13.5234C18.513 13.7995 18.2812 14.0625 18 14.3125C17.7188 14.5625 17.3724 14.7656 16.9609 14.9219C16.5547 15.0781 16.0729 15.1562 15.5156 15.1562ZM24.0312 6.54688V7.65625H19.4609V6.54688H24.0312ZM21.0078 4.49219H22.4531V12.9062C22.4531 13.1927 22.4974 13.4089 22.5859 13.5547C22.6745 13.7005 22.7891 13.7969 22.9297 13.8438C23.0703 13.8906 23.2214 13.9141 23.3828 13.9141C23.5026 13.9141 23.6276 13.9036 23.7578 13.8828C23.8932 13.8568 23.9948 13.8359 24.0625 13.8203L24.0703 15C23.9557 15.0365 23.8047 15.0703 23.6172 15.1016C23.4349 15.138 23.2135 15.1562 22.9531 15.1562C22.599 15.1562 22.2734 15.0859 21.9766 14.9453C21.6797 14.8047 21.4427 14.5703 21.2656 14.2422C21.0938 13.9089 21.0078 13.4609 21.0078 12.8984V4.49219ZM31.3672 9.58594L30.2109 9.28906L30.7812 3.625H36.6172V4.96094H32.0078L31.6641 8.05469C31.8724 7.9349 32.1354 7.82292 32.4531 7.71875C32.776 7.61458 33.1458 7.5625 33.5625 7.5625C34.0885 7.5625 34.5599 7.65365 34.9766 7.83594C35.3932 8.01302 35.7474 8.26823 36.0391 8.60156C36.3359 8.9349 36.5625 9.33594 36.7188 9.80469C36.875 10.2734 36.9531 10.7969 36.9531 11.375C36.9531 11.9219 36.8776 12.4245 36.7266 12.8828C36.5807 13.3411 36.3594 13.7422 36.0625 14.0859C35.7656 14.4245 35.3906 14.6875 34.9375 14.875C34.4896 15.0625 33.9609 15.1562 33.3516 15.1562C32.8932 15.1562 32.4583 15.0938 32.0469 14.9688C31.6406 14.8385 31.276 14.6432 30.9531 14.3828C30.6354 14.1172 30.375 13.7891 30.1719 13.3984C29.974 13.0026 29.849 12.5391 29.7969 12.0078H31.1719C31.2344 12.4349 31.3594 12.7943 31.5469 13.0859C31.7344 13.3776 31.9792 13.599 32.2812 13.75C32.5885 13.8958 32.9453 13.9688 33.3516 13.9688C33.6953 13.9688 34 13.9089 34.2656 13.7891C34.5312 13.6693 34.7552 13.4974 34.9375 13.2734C35.1198 13.0495 35.2578 12.7786 35.3516 12.4609C35.4505 12.1432 35.5 11.7865 35.5 11.3906C35.5 11.0312 35.4505 10.6979 35.3516 10.3906C35.2526 10.0833 35.1042 9.8151 34.9062 9.58594C34.7135 9.35677 34.4766 9.17969 34.1953 9.05469C33.9141 8.92448 33.5911 8.85938 33.2266 8.85938C32.7422 8.85938 32.375 8.92448 32.125 9.05469C31.8802 9.1849 31.6276 9.36198 31.3672 9.58594ZM45.6797 8.40625V10.1406C45.6797 11.0729 45.5964 11.8594 45.4297 12.5C45.263 13.1406 45.0234 13.6562 44.7109 14.0469C44.3984 14.4375 44.0208 14.7214 43.5781 14.8984C43.1406 15.0703 42.6458 15.1562 42.0938 15.1562C41.6562 15.1562 41.2526 15.1016 40.8828 14.9922C40.513 14.8828 40.1797 14.7083 39.8828 14.4688C39.5911 14.224 39.3411 13.9062 39.1328 13.5156C38.9245 13.125 38.7656 12.651 38.6562 12.0938C38.5469 11.5365 38.4922 10.8854 38.4922 10.1406V8.40625C38.4922 7.47396 38.5755 6.69271 38.7422 6.0625C38.9141 5.43229 39.1562 4.92708 39.4688 4.54688C39.7812 4.16146 40.1562 3.88542 40.5938 3.71875C41.0365 3.55208 41.5312 3.46875 42.0781 3.46875C42.5208 3.46875 42.9271 3.52344 43.2969 3.63281C43.6719 3.73698 44.0052 3.90625 44.2969 4.14062C44.5885 4.36979 44.8359 4.67708 45.0391 5.0625C45.2474 5.44271 45.4062 5.90885 45.5156 6.46094C45.625 7.01302 45.6797 7.66146 45.6797 8.40625ZM44.2266 10.375V8.16406C44.2266 7.65365 44.1953 7.20573 44.1328 6.82031C44.0755 6.42969 43.9896 6.09635 43.875 5.82031C43.7604 5.54427 43.6146 5.32031 43.4375 5.14844C43.2656 4.97656 43.0651 4.85156 42.8359 4.77344C42.612 4.6901 42.3594 4.64844 42.0781 4.64844C41.7344 4.64844 41.4297 4.71354 41.1641 4.84375C40.8984 4.96875 40.6745 5.16927 40.4922 5.44531C40.3151 5.72135 40.1797 6.08333 40.0859 6.53125C39.9922 6.97917 39.9453 7.52344 39.9453 8.16406V10.375C39.9453 10.8854 39.974 11.3359 40.0312 11.7266C40.0938 12.1172 40.1849 12.4557 40.3047 12.7422C40.4245 13.0234 40.5703 13.2552 40.7422 13.4375C40.9141 13.6198 41.112 13.7552 41.3359 13.8438C41.5651 13.9271 41.8177 13.9688 42.0938 13.9688C42.4479 13.9688 42.7578 13.901 43.0234 13.7656C43.2891 13.6302 43.5104 13.4193 43.6875 13.1328C43.8698 12.8411 44.0052 12.4688 44.0938 12.0156C44.1823 11.5573 44.2266 11.0104 44.2266 10.375ZM47.4141 6.41406V5.8125C47.4141 5.38021 47.5078 4.98698 47.6953 4.63281C47.8828 4.27865 48.151 3.99479 48.5 3.78125C48.849 3.56771 49.263 3.46094 49.7422 3.46094C50.2318 3.46094 50.6484 3.56771 50.9922 3.78125C51.3411 3.99479 51.6094 4.27865 51.7969 4.63281C51.9844 4.98698 52.0781 5.38021 52.0781 5.8125V6.41406C52.0781 6.83594 51.9844 7.22396 51.7969 7.57812C51.6146 7.93229 51.349 8.21615 51 8.42969C50.6562 8.64323 50.2422 8.75 49.7578 8.75C49.2734 8.75 48.8542 8.64323 48.5 8.42969C48.151 8.21615 47.8828 7.93229 47.6953 7.57812C47.5078 7.22396 47.4141 6.83594 47.4141 6.41406ZM48.5 5.8125V6.41406C48.5 6.65365 48.5443 6.88021 48.6328 7.09375C48.7266 7.30729 48.8672 7.48177 49.0547 7.61719C49.2422 7.7474 49.4766 7.8125 49.7578 7.8125C50.0391 7.8125 50.2708 7.7474 50.4531 7.61719C50.6354 7.48177 50.7708 7.30729 50.8594 7.09375C50.9479 6.88021 50.9922 6.65365 50.9922 6.41406V5.8125C50.9922 5.56771 50.9453 5.33854 50.8516 5.125C50.763 4.90625 50.625 4.73177 50.4375 4.60156C50.2552 4.46615 50.0234 4.39844 49.7422 4.39844C49.4661 4.39844 49.2344 4.46615 49.0469 4.60156C48.8646 4.73177 48.7266 4.90625 48.6328 5.125C48.5443 5.33854 48.5 5.56771 48.5 5.8125ZM52.9531 12.8203V12.2109C52.9531 11.7839 53.0469 11.3932 53.2344 11.0391C53.4219 10.6849 53.6901 10.401 54.0391 10.1875C54.388 9.97396 54.8021 9.86719 55.2812 9.86719C55.7708 9.86719 56.1875 9.97396 56.5312 10.1875C56.8802 10.401 57.1484 10.6849 57.3359 11.0391C57.5234 11.3932 57.6172 11.7839 57.6172 12.2109V12.8203C57.6172 13.2474 57.5234 13.638 57.3359 13.9922C57.1536 14.3464 56.888 14.6302 56.5391 14.8438C56.1953 15.0573 55.7812 15.1641 55.2969 15.1641C54.8125 15.1641 54.3958 15.0573 54.0469 14.8438C53.6979 14.6302 53.4271 14.3464 53.2344 13.9922C53.0469 13.638 52.9531 13.2474 52.9531 12.8203ZM54.0391 12.2109V12.8203C54.0391 13.0599 54.0833 13.2891 54.1719 13.5078C54.2656 13.7214 54.4062 13.8958 54.5938 14.0312C54.7812 14.1615 55.0156 14.2266 55.2969 14.2266C55.5781 14.2266 55.8099 14.1615 55.9922 14.0312C56.1797 13.8958 56.3177 13.7214 56.4062 13.5078C56.4948 13.2943 56.5391 13.0651 56.5391 12.8203V12.2109C56.5391 11.9661 56.4922 11.737 56.3984 11.5234C56.3099 11.3099 56.1719 11.138 55.9844 11.0078C55.8021 10.8724 55.5677 10.8047 55.2812 10.8047C55.0052 10.8047 54.7734 10.8724 54.5859 11.0078C54.4036 11.138 54.2656 11.3099 54.1719 11.5234C54.0833 11.737 54.0391 11.9661 54.0391 12.2109ZM55.6406 5.24219L50.0859 14.1328L49.2734 13.6172L54.8281 4.72656L55.6406 5.24219ZM72.3594 8.95312V9.67188C72.3594 10.526 72.2526 11.2917 72.0391 11.9688C71.8255 12.6458 71.5182 13.2214 71.1172 13.6953C70.7161 14.1693 70.2344 14.5312 69.6719 14.7812C69.1146 15.0312 68.4896 15.1562 67.7969 15.1562C67.125 15.1562 66.5078 15.0312 65.9453 14.7812C65.388 14.5312 64.9036 14.1693 64.4922 13.6953C64.0859 13.2214 63.7708 12.6458 63.5469 11.9688C63.3229 11.2917 63.2109 10.526 63.2109 9.67188V8.95312C63.2109 8.09896 63.3203 7.33594 63.5391 6.66406C63.763 5.98698 64.0781 5.41146 64.4844 4.9375C64.8906 4.45833 65.3724 4.09375 65.9297 3.84375C66.4922 3.59375 67.1094 3.46875 67.7812 3.46875C68.474 3.46875 69.099 3.59375 69.6562 3.84375C70.2188 4.09375 70.7005 4.45833 71.1016 4.9375C71.5078 5.41146 71.8177 5.98698 72.0312 6.66406C72.25 7.33594 72.3594 8.09896 72.3594 8.95312ZM70.8672 9.67188V8.9375C70.8672 8.26042 70.7969 7.66146 70.6562 7.14062C70.5208 6.61979 70.3203 6.18229 70.0547 5.82812C69.7891 5.47396 69.4635 5.20573 69.0781 5.02344C68.6979 4.84115 68.2656 4.75 67.7812 4.75C67.3125 4.75 66.888 4.84115 66.5078 5.02344C66.1328 5.20573 65.8099 5.47396 65.5391 5.82812C65.2734 6.18229 65.0677 6.61979 64.9219 7.14062C64.776 7.66146 64.7031 8.26042 64.7031 8.9375V9.67188C64.7031 10.3542 64.776 10.9583 64.9219 11.4844C65.0677 12.0052 65.276 12.4453 65.5469 12.8047C65.8229 13.1589 66.1484 13.4271 66.5234 13.6094C66.9036 13.7917 67.3281 13.8828 67.7969 13.8828C68.2865 13.8828 68.7214 13.7917 69.1016 13.6094C69.4818 13.4271 69.8021 13.1589 70.0625 12.8047C70.3281 12.4453 70.5286 12.0052 70.6641 11.4844C70.7995 10.9583 70.8672 10.3542 70.8672 9.67188ZM76.5547 15H75.1094V5.65625C75.1094 5.04688 75.2188 4.53385 75.4375 4.11719C75.6615 3.69531 75.9818 3.3776 76.3984 3.16406C76.8151 2.94531 77.3099 2.83594 77.8828 2.83594C78.0495 2.83594 78.2161 2.84635 78.3828 2.86719C78.5547 2.88802 78.7214 2.91927 78.8828 2.96094L78.8047 4.14062C78.6953 4.11458 78.5703 4.09635 78.4297 4.08594C78.2943 4.07552 78.1589 4.07031 78.0234 4.07031C77.7161 4.07031 77.4505 4.13281 77.2266 4.25781C77.0078 4.3776 76.8411 4.55469 76.7266 4.78906C76.612 5.02344 76.5547 5.3125 76.5547 5.65625V15ZM78.3516 6.54688V7.65625H73.7734V6.54688H78.3516ZM82.1172 15H80.6719V5.65625C80.6719 5.04688 80.7812 4.53385 81 4.11719C81.224 3.69531 81.5443 3.3776 81.9609 3.16406C82.3776 2.94531 82.8724 2.83594 83.4453 2.83594C83.612 2.83594 83.7786 2.84635 83.9453 2.86719C84.1172 2.88802 84.2839 2.91927 84.4453 2.96094L84.3672 4.14062C84.2578 4.11458 84.1328 4.09635 83.9922 4.08594C83.8568 4.07552 83.7214 4.07031 83.5859 4.07031C83.2786 4.07031 83.013 4.13281 82.7891 4.25781C82.5703 4.3776 82.4036 4.55469 82.2891 4.78906C82.1745 5.02344 82.1172 5.3125 82.1172 5.65625V15ZM83.9141 6.54688V7.65625H79.3359V6.54688H83.9141ZM98.4609 3.625V15H96.9453L91.2188 6.22656V15H89.7109V3.625H91.2188L96.9688 12.4219V3.625H98.4609ZM105.898 13.5547V9.20312C105.898 8.86979 105.831 8.58073 105.695 8.33594C105.565 8.08594 105.367 7.89323 105.102 7.75781C104.836 7.6224 104.508 7.55469 104.117 7.55469C103.753 7.55469 103.432 7.61719 103.156 7.74219C102.885 7.86719 102.672 8.03125 102.516 8.23438C102.365 8.4375 102.289 8.65625 102.289 8.89062H100.844C100.844 8.58854 100.922 8.28906 101.078 7.99219C101.234 7.69531 101.458 7.42708 101.75 7.1875C102.047 6.94271 102.401 6.75 102.812 6.60938C103.229 6.46354 103.693 6.39062 104.203 6.39062C104.818 6.39062 105.359 6.49479 105.828 6.70312C106.302 6.91146 106.672 7.22656 106.938 7.64844C107.208 8.0651 107.344 8.58854 107.344 9.21875V13.1562C107.344 13.4375 107.367 13.737 107.414 14.0547C107.466 14.3724 107.542 14.6458 107.641 14.875V15H106.133C106.06 14.8333 106.003 14.612 105.961 14.3359C105.919 14.0547 105.898 13.7943 105.898 13.5547ZM106.148 9.875L106.164 10.8906H104.703C104.292 10.8906 103.924 10.9245 103.602 10.9922C103.279 11.0547 103.008 11.151 102.789 11.2812C102.57 11.4115 102.404 11.5755 102.289 11.7734C102.174 11.9661 102.117 12.1927 102.117 12.4531C102.117 12.7188 102.177 12.9609 102.297 13.1797C102.417 13.3984 102.596 13.5729 102.836 13.7031C103.081 13.8281 103.38 13.8906 103.734 13.8906C104.177 13.8906 104.568 13.7969 104.906 13.6094C105.245 13.4219 105.513 13.1927 105.711 12.9219C105.914 12.651 106.023 12.388 106.039 12.1328L106.656 12.8281C106.62 13.0469 106.521 13.2891 106.359 13.5547C106.198 13.8203 105.982 14.0755 105.711 14.3203C105.445 14.5599 105.128 14.7604 104.758 14.9219C104.393 15.0781 103.982 15.1562 103.523 15.1562C102.951 15.1562 102.448 15.0443 102.016 14.8203C101.589 14.5964 101.255 14.2969 101.016 13.9219C100.781 13.5417 100.664 13.1172 100.664 12.6484C100.664 12.1953 100.753 11.7969 100.93 11.4531C101.107 11.1042 101.362 10.8151 101.695 10.5859C102.029 10.3516 102.43 10.1745 102.898 10.0547C103.367 9.9349 103.891 9.875 104.469 9.875H106.148ZM111.055 8.22656V15H109.602V6.54688H110.977L111.055 8.22656ZM110.758 10.4531L110.086 10.4297C110.091 9.85156 110.167 9.31771 110.312 8.82812C110.458 8.33333 110.674 7.90365 110.961 7.53906C111.247 7.17448 111.604 6.89323 112.031 6.69531C112.458 6.49219 112.953 6.39062 113.516 6.39062C113.911 6.39062 114.276 6.44792 114.609 6.5625C114.943 6.67188 115.232 6.84635 115.477 7.08594C115.721 7.32552 115.911 7.63281 116.047 8.00781C116.182 8.38281 116.25 8.83594 116.25 9.36719V15H114.805V9.4375C114.805 8.99479 114.729 8.64062 114.578 8.375C114.432 8.10938 114.224 7.91667 113.953 7.79688C113.682 7.67188 113.365 7.60938 113 7.60938C112.573 7.60938 112.216 7.6849 111.93 7.83594C111.643 7.98698 111.414 8.19531 111.242 8.46094C111.07 8.72656 110.945 9.03125 110.867 9.375C110.794 9.71354 110.758 10.0729 110.758 10.4531ZM116.234 9.65625L115.266 9.95312C115.271 9.48958 115.346 9.04427 115.492 8.61719C115.643 8.1901 115.859 7.8099 116.141 7.47656C116.427 7.14323 116.779 6.88021 117.195 6.6875C117.612 6.48958 118.089 6.39062 118.625 6.39062C119.078 6.39062 119.479 6.45052 119.828 6.57031C120.182 6.6901 120.479 6.875 120.719 7.125C120.964 7.36979 121.148 7.6849 121.273 8.07031C121.398 8.45573 121.461 8.91406 121.461 9.44531V15H120.008V9.42969C120.008 8.95573 119.932 8.58854 119.781 8.32812C119.635 8.0625 119.427 7.8776 119.156 7.77344C118.891 7.66406 118.573 7.60938 118.203 7.60938C117.885 7.60938 117.604 7.66406 117.359 7.77344C117.115 7.88281 116.909 8.03385 116.742 8.22656C116.576 8.41406 116.448 8.63021 116.359 8.875C116.276 9.11979 116.234 9.38021 116.234 9.65625ZM127.156 15.1562C126.568 15.1562 126.034 15.0573 125.555 14.8594C125.081 14.6562 124.672 14.3724 124.328 14.0078C123.99 13.6432 123.729 13.2109 123.547 12.7109C123.365 12.2109 123.273 11.6641 123.273 11.0703V10.7422C123.273 10.0547 123.375 9.44271 123.578 8.90625C123.781 8.36458 124.057 7.90625 124.406 7.53125C124.755 7.15625 125.151 6.8724 125.594 6.67969C126.036 6.48698 126.495 6.39062 126.969 6.39062C127.573 6.39062 128.094 6.49479 128.531 6.70312C128.974 6.91146 129.336 7.20312 129.617 7.57812C129.898 7.94792 130.107 8.38542 130.242 8.89062C130.378 9.39062 130.445 9.9375 130.445 10.5312V11.1797H124.133V10H129V9.89062C128.979 9.51562 128.901 9.15104 128.766 8.79688C128.635 8.44271 128.427 8.15104 128.141 7.92188C127.854 7.69271 127.464 7.57812 126.969 7.57812C126.641 7.57812 126.339 7.64844 126.062 7.78906C125.786 7.92448 125.549 8.1276 125.352 8.39844C125.154 8.66927 125 9 124.891 9.39062C124.781 9.78125 124.727 10.2318 124.727 10.7422V11.0703C124.727 11.4714 124.781 11.849 124.891 12.2031C125.005 12.5521 125.169 12.8594 125.383 13.125C125.602 13.3906 125.865 13.599 126.172 13.75C126.484 13.901 126.839 13.9766 127.234 13.9766C127.745 13.9766 128.177 13.8724 128.531 13.6641C128.885 13.4557 129.195 13.1771 129.461 12.8281L130.336 13.5234C130.154 13.7995 129.922 14.0625 129.641 14.3125C129.359 14.5625 129.013 14.7656 128.602 14.9219C128.195 15.0781 127.714 15.1562 127.156 15.1562ZM135.141 9.57031V10.7578H131.328V9.57031H135.141ZM140.828 9.67969H137.945L137.93 8.46875H140.547C140.979 8.46875 141.357 8.39583 141.68 8.25C142.003 8.10417 142.253 7.89583 142.43 7.625C142.612 7.34896 142.703 7.02083 142.703 6.64062C142.703 6.22396 142.622 5.88542 142.461 5.625C142.305 5.35938 142.062 5.16667 141.734 5.04688C141.411 4.92188 141 4.85938 140.5 4.85938H138.281V15H136.773V3.625H140.5C141.083 3.625 141.604 3.6849 142.062 3.80469C142.521 3.91927 142.909 4.10156 143.227 4.35156C143.549 4.59635 143.794 4.90885 143.961 5.28906C144.128 5.66927 144.211 6.125 144.211 6.65625C144.211 7.125 144.091 7.54948 143.852 7.92969C143.612 8.30469 143.279 8.61198 142.852 8.85156C142.43 9.09115 141.935 9.24479 141.367 9.3125L140.828 9.67969ZM140.758 15H137.352L138.203 13.7734H140.758C141.237 13.7734 141.643 13.6901 141.977 13.5234C142.315 13.3568 142.573 13.1224 142.75 12.8203C142.927 12.513 143.016 12.151 143.016 11.7344C143.016 11.3125 142.94 10.9479 142.789 10.6406C142.638 10.3333 142.401 10.0964 142.078 9.92969C141.755 9.76302 141.339 9.67969 140.828 9.67969H138.68L138.695 8.46875H141.633L141.953 8.90625C142.5 8.95312 142.964 9.10938 143.344 9.375C143.724 9.63542 144.013 9.96875 144.211 10.375C144.414 10.7812 144.516 11.2292 144.516 11.7188C144.516 12.4271 144.359 13.026 144.047 13.5156C143.74 14 143.305 14.3698 142.742 14.625C142.18 14.875 141.518 15 140.758 15ZM147.969 7.875V15H146.523V6.54688H147.93L147.969 7.875ZM150.609 6.5L150.602 7.84375C150.482 7.81771 150.367 7.80208 150.258 7.79688C150.154 7.78646 150.034 7.78125 149.898 7.78125C149.565 7.78125 149.271 7.83333 149.016 7.9375C148.76 8.04167 148.544 8.1875 148.367 8.375C148.19 8.5625 148.049 8.78646 147.945 9.04688C147.846 9.30208 147.781 9.58333 147.75 9.89062L147.344 10.125C147.344 9.61458 147.393 9.13542 147.492 8.6875C147.596 8.23958 147.755 7.84375 147.969 7.5C148.182 7.15104 148.453 6.88021 148.781 6.6875C149.115 6.48958 149.51 6.39062 149.969 6.39062C150.073 6.39062 150.193 6.40365 150.328 6.42969C150.464 6.45052 150.557 6.47396 150.609 6.5ZM156.617 13.5547V9.20312C156.617 8.86979 156.549 8.58073 156.414 8.33594C156.284 8.08594 156.086 7.89323 155.82 7.75781C155.555 7.6224 155.227 7.55469 154.836 7.55469C154.471 7.55469 154.151 7.61719 153.875 7.74219C153.604 7.86719 153.391 8.03125 153.234 8.23438C153.083 8.4375 153.008 8.65625 153.008 8.89062H151.562C151.562 8.58854 151.641 8.28906 151.797 7.99219C151.953 7.69531 152.177 7.42708 152.469 7.1875C152.766 6.94271 153.12 6.75 153.531 6.60938C153.948 6.46354 154.411 6.39062 154.922 6.39062C155.536 6.39062 156.078 6.49479 156.547 6.70312C157.021 6.91146 157.391 7.22656 157.656 7.64844C157.927 8.0651 158.062 8.58854 158.062 9.21875V13.1562C158.062 13.4375 158.086 13.737 158.133 14.0547C158.185 14.3724 158.26 14.6458 158.359 14.875V15H156.852C156.779 14.8333 156.721 14.612 156.68 14.3359C156.638 14.0547 156.617 13.7943 156.617 13.5547ZM156.867 9.875L156.883 10.8906H155.422C155.01 10.8906 154.643 10.9245 154.32 10.9922C153.997 11.0547 153.727 11.151 153.508 11.2812C153.289 11.4115 153.122 11.5755 153.008 11.7734C152.893 11.9661 152.836 12.1927 152.836 12.4531C152.836 12.7188 152.896 12.9609 153.016 13.1797C153.135 13.3984 153.315 13.5729 153.555 13.7031C153.799 13.8281 154.099 13.8906 154.453 13.8906C154.896 13.8906 155.286 13.7969 155.625 13.6094C155.964 13.4219 156.232 13.1927 156.43 12.9219C156.633 12.651 156.742 12.388 156.758 12.1328L157.375 12.8281C157.339 13.0469 157.24 13.2891 157.078 13.5547C156.917 13.8203 156.701 14.0755 156.43 14.3203C156.164 14.5599 155.846 14.7604 155.477 14.9219C155.112 15.0781 154.701 15.1562 154.242 15.1562C153.669 15.1562 153.167 15.0443 152.734 14.8203C152.307 14.5964 151.974 14.2969 151.734 13.9219C151.5 13.5417 151.383 13.1172 151.383 12.6484C151.383 12.1953 151.471 11.7969 151.648 11.4531C151.826 11.1042 152.081 10.8151 152.414 10.5859C152.747 10.3516 153.148 10.1745 153.617 10.0547C154.086 9.9349 154.609 9.875 155.188 9.875H156.867ZM161.781 8.35156V15H160.336V6.54688H161.703L161.781 8.35156ZM161.438 10.4531L160.836 10.4297C160.841 9.85156 160.927 9.31771 161.094 8.82812C161.26 8.33333 161.495 7.90365 161.797 7.53906C162.099 7.17448 162.458 6.89323 162.875 6.69531C163.297 6.49219 163.763 6.39062 164.273 6.39062C164.69 6.39062 165.065 6.44792 165.398 6.5625C165.732 6.67188 166.016 6.84896 166.25 7.09375C166.49 7.33854 166.672 7.65625 166.797 8.04688C166.922 8.43229 166.984 8.90365 166.984 9.46094V15H165.531V9.44531C165.531 9.0026 165.466 8.64844 165.336 8.38281C165.206 8.11198 165.016 7.91667 164.766 7.79688C164.516 7.67188 164.208 7.60938 163.844 7.60938C163.484 7.60938 163.156 7.6849 162.859 7.83594C162.568 7.98698 162.315 8.19531 162.102 8.46094C161.893 8.72656 161.729 9.03125 161.609 9.375C161.495 9.71354 161.438 10.0729 161.438 10.4531ZM174.508 13.3594V3H175.961V15H174.633L174.508 13.3594ZM168.82 10.8672V10.7031C168.82 10.0573 168.898 9.47135 169.055 8.94531C169.216 8.41406 169.443 7.95833 169.734 7.57812C170.031 7.19792 170.383 6.90625 170.789 6.70312C171.201 6.49479 171.659 6.39062 172.164 6.39062C172.695 6.39062 173.159 6.48438 173.555 6.67188C173.956 6.85417 174.294 7.1224 174.57 7.47656C174.852 7.82552 175.073 8.2474 175.234 8.74219C175.396 9.23698 175.508 9.79688 175.57 10.4219V11.1406C175.513 11.7604 175.401 12.3177 175.234 12.8125C175.073 13.3073 174.852 13.7292 174.57 14.0781C174.294 14.4271 173.956 14.6953 173.555 14.8828C173.154 15.0651 172.685 15.1562 172.148 15.1562C171.654 15.1562 171.201 15.0495 170.789 14.8359C170.383 14.6224 170.031 14.3229 169.734 13.9375C169.443 13.5521 169.216 13.099 169.055 12.5781C168.898 12.0521 168.82 11.4818 168.82 10.8672ZM170.273 10.7031V10.8672C170.273 11.2891 170.315 11.6849 170.398 12.0547C170.487 12.4245 170.622 12.75 170.805 13.0312C170.987 13.3125 171.219 13.5339 171.5 13.6953C171.781 13.8516 172.117 13.9297 172.508 13.9297C172.987 13.9297 173.38 13.8281 173.688 13.625C174 13.4219 174.25 13.1536 174.438 12.8203C174.625 12.487 174.771 12.125 174.875 11.7344V9.85156C174.812 9.5651 174.721 9.28906 174.602 9.02344C174.487 8.7526 174.336 8.51302 174.148 8.30469C173.966 8.09115 173.74 7.92188 173.469 7.79688C173.203 7.67188 172.888 7.60938 172.523 7.60938C172.128 7.60938 171.786 7.69271 171.5 7.85938C171.219 8.02083 170.987 8.24479 170.805 8.53125C170.622 8.8125 170.487 9.14062 170.398 9.51562C170.315 9.88542 170.273 10.2812 170.273 10.7031ZM6.09375 32.6797V24.625H7.59375V32.6797C7.59375 33.4297 7.4401 34.0625 7.13281 34.5781C6.82552 35.0938 6.40104 35.487 5.85938 35.7578C5.32292 36.0234 4.70573 36.1562 4.00781 36.1562C3.3099 36.1562 2.6901 36.0365 2.14844 35.7969C1.60677 35.5573 1.18229 35.1927 0.875 34.7031C0.567708 34.2135 0.414062 33.5964 0.414062 32.8516H1.92188C1.92188 33.3307 2.01042 33.724 2.1875 34.0312C2.36458 34.3385 2.60938 34.5651 2.92188 34.7109C3.23958 34.8568 3.60156 34.9297 4.00781 34.9297C4.40365 34.9297 4.75781 34.8464 5.07031 34.6797C5.38802 34.5078 5.63802 34.2552 5.82031 33.9219C6.0026 33.5833 6.09375 33.1693 6.09375 32.6797ZM13.4375 36.1562C12.849 36.1562 12.3151 36.0573 11.8359 35.8594C11.362 35.6562 10.9531 35.3724 10.6094 35.0078C10.2708 34.6432 10.0104 34.2109 9.82812 33.7109C9.64583 33.2109 9.55469 32.6641 9.55469 32.0703V31.7422C9.55469 31.0547 9.65625 30.4427 9.85938 29.9062C10.0625 29.3646 10.3385 28.9062 10.6875 28.5312C11.0365 28.1562 11.4323 27.8724 11.875 27.6797C12.3177 27.487 12.776 27.3906 13.25 27.3906C13.8542 27.3906 14.375 27.4948 14.8125 27.7031C15.2552 27.9115 15.6172 28.2031 15.8984 28.5781C16.1797 28.9479 16.388 29.3854 16.5234 29.8906C16.6589 30.3906 16.7266 30.9375 16.7266 31.5312V32.1797H10.4141V31H15.2812V30.8906C15.2604 30.5156 15.1823 30.151 15.0469 29.7969C14.9167 29.4427 14.7083 29.151 14.4219 28.9219C14.1354 28.6927 13.7448 28.5781 13.25 28.5781C12.9219 28.5781 12.6198 28.6484 12.3438 28.7891C12.0677 28.9245 11.8307 29.1276 11.6328 29.3984C11.4349 29.6693 11.2812 30 11.1719 30.3906C11.0625 30.7812 11.0078 31.2318 11.0078 31.7422V32.0703C11.0078 32.4714 11.0625 32.849 11.1719 33.2031C11.2865 33.5521 11.4505 33.8594 11.6641 34.125C11.8828 34.3906 12.1458 34.599 12.4531 34.75C12.7656 34.901 13.1198 34.9766 13.5156 34.9766C14.026 34.9766 14.4583 34.8724 14.8125 34.6641C15.1667 34.4557 15.4766 34.1771 15.7422 33.8281L16.6172 34.5234C16.4349 34.7995 16.2031 35.0625 15.9219 35.3125C15.6406 35.5625 15.2943 35.7656 14.8828 35.9219C14.4766 36.0781 13.9948 36.1562 13.4375 36.1562ZM20.5547 34.5L22.7266 27.5469H23.6797L23.4922 28.9297L21.2812 36H20.3516L20.5547 34.5ZM19.0938 27.5469L20.9453 34.5781L21.0781 36H20.1016L17.6484 27.5469H19.0938ZM25.7578 34.5234L27.5234 27.5469H28.9609L26.5078 36H25.5391L25.7578 34.5234ZM23.8906 27.5469L26.0156 34.3828L26.2578 36H25.3359L23.0625 28.9141L22.875 27.5469H23.8906ZM33.9531 36.1562C33.3646 36.1562 32.8307 36.0573 32.3516 35.8594C31.8776 35.6562 31.4688 35.3724 31.125 35.0078C30.7865 34.6432 30.526 34.2109 30.3438 33.7109C30.1615 33.2109 30.0703 32.6641 30.0703 32.0703V31.7422C30.0703 31.0547 30.1719 30.4427 30.375 29.9062C30.5781 29.3646 30.8542 28.9062 31.2031 28.5312C31.5521 28.1562 31.9479 27.8724 32.3906 27.6797C32.8333 27.487 33.2917 27.3906 33.7656 27.3906C34.3698 27.3906 34.8906 27.4948 35.3281 27.7031C35.7708 27.9115 36.1328 28.2031 36.4141 28.5781C36.6953 28.9479 36.9036 29.3854 37.0391 29.8906C37.1745 30.3906 37.2422 30.9375 37.2422 31.5312V32.1797H30.9297V31H35.7969V30.8906C35.776 30.5156 35.6979 30.151 35.5625 29.7969C35.4323 29.4427 35.224 29.151 34.9375 28.9219C34.651 28.6927 34.2604 28.5781 33.7656 28.5781C33.4375 28.5781 33.1354 28.6484 32.8594 28.7891C32.5833 28.9245 32.3464 29.1276 32.1484 29.3984C31.9505 29.6693 31.7969 30 31.6875 30.3906C31.5781 30.7812 31.5234 31.2318 31.5234 31.7422V32.0703C31.5234 32.4714 31.5781 32.849 31.6875 33.2031C31.8021 33.5521 31.9661 33.8594 32.1797 34.125C32.3984 34.3906 32.6615 34.599 32.9688 34.75C33.2812 34.901 33.6354 34.9766 34.0312 34.9766C34.5417 34.9766 34.974 34.8724 35.3281 34.6641C35.6823 34.4557 35.9922 34.1771 36.2578 33.8281L37.1328 34.5234C36.9505 34.7995 36.7188 35.0625 36.4375 35.3125C36.1562 35.5625 35.8099 35.7656 35.3984 35.9219C34.9922 36.0781 34.5104 36.1562 33.9531 36.1562ZM40.5 24V36H39.0469V24H40.5ZM44.2656 28.875V36H42.8203V27.5469H44.2266L44.2656 28.875ZM46.9062 27.5L46.8984 28.8438C46.7786 28.8177 46.6641 28.8021 46.5547 28.7969C46.4505 28.7865 46.3307 28.7812 46.1953 28.7812C45.862 28.7812 45.5677 28.8333 45.3125 28.9375C45.0573 29.0417 44.8411 29.1875 44.6641 29.375C44.487 29.5625 44.3464 29.7865 44.2422 30.0469C44.1432 30.3021 44.0781 30.5833 44.0469 30.8906L43.6406 31.125C43.6406 30.6146 43.6901 30.1354 43.7891 29.6875C43.8932 29.2396 44.0521 28.8438 44.2656 28.5C44.4792 28.151 44.75 27.8802 45.0781 27.6875C45.4115 27.4896 45.8073 27.3906 46.2656 27.3906C46.3698 27.3906 46.4896 27.4036 46.625 27.4297C46.7604 27.4505 46.8542 27.474 46.9062 27.5ZM50.7578 35.125L53.1094 27.5469H54.6562L51.2656 37.3047C51.1875 37.513 51.0833 37.737 50.9531 37.9766C50.8281 38.2214 50.6667 38.4531 50.4688 38.6719C50.2708 38.8906 50.0312 39.0677 49.75 39.2031C49.474 39.3438 49.1432 39.4141 48.7578 39.4141C48.6432 39.4141 48.4974 39.3984 48.3203 39.3672C48.1432 39.3359 48.0182 39.3099 47.9453 39.2891L47.9375 38.1172C47.9792 38.1224 48.0443 38.1276 48.1328 38.1328C48.2266 38.1432 48.2917 38.1484 48.3281 38.1484C48.6562 38.1484 48.9349 38.1042 49.1641 38.0156C49.3932 37.9323 49.5859 37.7891 49.7422 37.5859C49.9036 37.388 50.0417 37.1146 50.1562 36.7656L50.7578 35.125ZM49.0312 27.5469L51.2266 34.1094L51.6016 35.6328L50.5625 36.1641L47.4531 27.5469H49.0312ZM62.0859 36H60.6406V26.6562C60.6406 26.0469 60.75 25.5339 60.9688 25.1172C61.1927 24.6953 61.513 24.3776 61.9297 24.1641C62.3464 23.9453 62.8411 23.8359 63.4141 23.8359C63.5807 23.8359 63.7474 23.8464 63.9141 23.8672C64.0859 23.888 64.2526 23.9193 64.4141 23.9609L64.3359 25.1406C64.2266 25.1146 64.1016 25.0964 63.9609 25.0859C63.8255 25.0755 63.6901 25.0703 63.5547 25.0703C63.2474 25.0703 62.9818 25.1328 62.7578 25.2578C62.5391 25.3776 62.3724 25.5547 62.2578 25.7891C62.1432 26.0234 62.0859 26.3125 62.0859 26.6562V36ZM63.8828 27.5469V28.6562H59.3047V27.5469H63.8828ZM66.9375 28.875V36H65.4922V27.5469H66.8984L66.9375 28.875ZM69.5781 27.5L69.5703 28.8438C69.4505 28.8177 69.3359 28.8021 69.2266 28.7969C69.1224 28.7865 69.0026 28.7812 68.8672 28.7812C68.5339 28.7812 68.2396 28.8333 67.9844 28.9375C67.7292 29.0417 67.513 29.1875 67.3359 29.375C67.1589 29.5625 67.0182 29.7865 66.9141 30.0469C66.8151 30.3021 66.75 30.5833 66.7188 30.8906L66.3125 31.125C66.3125 30.6146 66.362 30.1354 66.4609 29.6875C66.5651 29.2396 66.724 28.8438 66.9375 28.5C67.151 28.151 67.4219 27.8802 67.75 27.6875C68.0833 27.4896 68.4792 27.3906 68.9375 27.3906C69.0417 27.3906 69.1615 27.4036 69.2969 27.4297C69.4323 27.4505 69.526 27.474 69.5781 27.5ZM70.375 31.8672V31.6875C70.375 31.0781 70.4635 30.513 70.6406 29.9922C70.8177 29.4661 71.0729 29.0104 71.4062 28.625C71.7396 28.2344 72.1432 27.9323 72.6172 27.7188C73.0911 27.5 73.6224 27.3906 74.2109 27.3906C74.8047 27.3906 75.3385 27.5 75.8125 27.7188C76.2917 27.9323 76.6979 28.2344 77.0312 28.625C77.3698 29.0104 77.6276 29.4661 77.8047 29.9922C77.9818 30.513 78.0703 31.0781 78.0703 31.6875V31.8672C78.0703 32.4766 77.9818 33.0417 77.8047 33.5625C77.6276 34.0833 77.3698 34.5391 77.0312 34.9297C76.6979 35.3151 76.2943 35.6172 75.8203 35.8359C75.3516 36.0495 74.8203 36.1562 74.2266 36.1562C73.6328 36.1562 73.099 36.0495 72.625 35.8359C72.151 35.6172 71.7448 35.3151 71.4062 34.9297C71.0729 34.5391 70.8177 34.0833 70.6406 33.5625C70.4635 33.0417 70.375 32.4766 70.375 31.8672ZM71.8203 31.6875V31.8672C71.8203 32.2891 71.8698 32.6875 71.9688 33.0625C72.0677 33.4323 72.2161 33.7604 72.4141 34.0469C72.6172 34.3333 72.8698 34.5599 73.1719 34.7266C73.474 34.888 73.8255 34.9688 74.2266 34.9688C74.6224 34.9688 74.9688 34.888 75.2656 34.7266C75.5677 34.5599 75.8177 34.3333 76.0156 34.0469C76.2135 33.7604 76.362 33.4323 76.4609 33.0625C76.5651 32.6875 76.6172 32.2891 76.6172 31.8672V31.6875C76.6172 31.2708 76.5651 30.8776 76.4609 30.5078C76.362 30.1328 76.2109 29.8021 76.0078 29.5156C75.8099 29.224 75.5599 28.9948 75.2578 28.8281C74.9609 28.6615 74.612 28.5781 74.2109 28.5781C73.8151 28.5781 73.4661 28.6615 73.1641 28.8281C72.8672 28.9948 72.6172 29.224 72.4141 29.5156C72.2161 29.8021 72.0677 30.1328 71.9688 30.5078C71.8698 30.8776 71.8203 31.2708 71.8203 31.6875ZM81.3203 29.2266V36H79.8672V27.5469H81.2422L81.3203 29.2266ZM81.0234 31.4531L80.3516 31.4297C80.3568 30.8516 80.4323 30.3177 80.5781 29.8281C80.724 29.3333 80.9401 28.9036 81.2266 28.5391C81.513 28.1745 81.8698 27.8932 82.2969 27.6953C82.724 27.4922 83.2188 27.3906 83.7812 27.3906C84.1771 27.3906 84.5417 27.4479 84.875 27.5625C85.2083 27.6719 85.4974 27.8464 85.7422 28.0859C85.987 28.3255 86.1771 28.6328 86.3125 29.0078C86.4479 29.3828 86.5156 29.8359 86.5156 30.3672V36H85.0703V30.4375C85.0703 29.9948 84.9948 29.6406 84.8438 29.375C84.6979 29.1094 84.4896 28.9167 84.2188 28.7969C83.9479 28.6719 83.6302 28.6094 83.2656 28.6094C82.8385 28.6094 82.4818 28.6849 82.1953 28.8359C81.9089 28.987 81.6797 29.1953 81.5078 29.4609C81.3359 29.7266 81.2109 30.0312 81.1328 30.375C81.0599 30.7135 81.0234 31.0729 81.0234 31.4531ZM86.5 30.6562L85.5312 30.9531C85.5365 30.4896 85.612 30.0443 85.7578 29.6172C85.9089 29.1901 86.125 28.8099 86.4062 28.4766C86.6927 28.1432 87.0443 27.8802 87.4609 27.6875C87.8776 27.4896 88.3542 27.3906 88.8906 27.3906C89.3438 27.3906 89.7448 27.4505 90.0938 27.5703C90.4479 27.6901 90.7448 27.875 90.9844 28.125C91.2292 28.3698 91.4141 28.6849 91.5391 29.0703C91.6641 29.4557 91.7266 29.9141 91.7266 30.4453V36H90.2734V30.4297C90.2734 29.9557 90.1979 29.5885 90.0469 29.3281C89.901 29.0625 89.6927 28.8776 89.4219 28.7734C89.1562 28.6641 88.8385 28.6094 88.4688 28.6094C88.151 28.6094 87.8698 28.6641 87.625 28.7734C87.3802 28.8828 87.1745 29.0339 87.0078 29.2266C86.8411 29.4141 86.7135 29.6302 86.625 29.875C86.5417 30.1198 86.5 30.3802 86.5 30.6562ZM105.734 34.7734V36H98.0312V34.7734H105.734ZM105.484 25.7188L98.3906 36H97.4609V34.875L104.547 24.625H105.484V25.7188ZM104.844 24.625V25.8594H97.5625V24.625H104.844ZM112.461 34.5547V30.2031C112.461 29.8698 112.393 29.5807 112.258 29.3359C112.128 29.0859 111.93 28.8932 111.664 28.7578C111.398 28.6224 111.07 28.5547 110.68 28.5547C110.315 28.5547 109.995 28.6172 109.719 28.7422C109.448 28.8672 109.234 29.0312 109.078 29.2344C108.927 29.4375 108.852 29.6562 108.852 29.8906H107.406C107.406 29.5885 107.484 29.2891 107.641 28.9922C107.797 28.6953 108.021 28.4271 108.312 28.1875C108.609 27.9427 108.964 27.75 109.375 27.6094C109.792 27.4635 110.255 27.3906 110.766 27.3906C111.38 27.3906 111.922 27.4948 112.391 27.7031C112.865 27.9115 113.234 28.2266 113.5 28.6484C113.771 29.0651 113.906 29.5885 113.906 30.2188V34.1562C113.906 34.4375 113.93 34.737 113.977 35.0547C114.029 35.3724 114.104 35.6458 114.203 35.875V36H112.695C112.622 35.8333 112.565 35.612 112.523 35.3359C112.482 35.0547 112.461 34.7943 112.461 34.5547ZM112.711 30.875L112.727 31.8906H111.266C110.854 31.8906 110.487 31.9245 110.164 31.9922C109.841 32.0547 109.57 32.151 109.352 32.2812C109.133 32.4115 108.966 32.5755 108.852 32.7734C108.737 32.9661 108.68 33.1927 108.68 33.4531C108.68 33.7188 108.74 33.9609 108.859 34.1797C108.979 34.3984 109.159 34.5729 109.398 34.7031C109.643 34.8281 109.943 34.8906 110.297 34.8906C110.74 34.8906 111.13 34.7969 111.469 34.6094C111.807 34.4219 112.076 34.1927 112.273 33.9219C112.477 33.651 112.586 33.388 112.602 33.1328L113.219 33.8281C113.182 34.0469 113.083 34.2891 112.922 34.5547C112.76 34.8203 112.544 35.0755 112.273 35.3203C112.008 35.5599 111.69 35.7604 111.32 35.9219C110.956 36.0781 110.544 36.1562 110.086 36.1562C109.513 36.1562 109.01 36.0443 108.578 35.8203C108.151 35.5964 107.818 35.2969 107.578 34.9219C107.344 34.5417 107.227 34.1172 107.227 33.6484C107.227 33.1953 107.315 32.7969 107.492 32.4531C107.669 32.1042 107.924 31.8151 108.258 31.5859C108.591 31.3516 108.992 31.1745 109.461 31.0547C109.93 30.9349 110.453 30.875 111.031 30.875H112.711ZM117.75 24V36H116.297V24H117.75ZM123.578 36.1562C122.99 36.1562 122.456 36.0573 121.977 35.8594C121.503 35.6562 121.094 35.3724 120.75 35.0078C120.411 34.6432 120.151 34.2109 119.969 33.7109C119.786 33.2109 119.695 32.6641 119.695 32.0703V31.7422C119.695 31.0547 119.797 30.4427 120 29.9062C120.203 29.3646 120.479 28.9062 120.828 28.5312C121.177 28.1562 121.573 27.8724 122.016 27.6797C122.458 27.487 122.917 27.3906 123.391 27.3906C123.995 27.3906 124.516 27.4948 124.953 27.7031C125.396 27.9115 125.758 28.2031 126.039 28.5781C126.32 28.9479 126.529 29.3854 126.664 29.8906C126.799 30.3906 126.867 30.9375 126.867 31.5312V32.1797H120.555V31H125.422V30.8906C125.401 30.5156 125.323 30.151 125.188 29.7969C125.057 29.4427 124.849 29.151 124.562 28.9219C124.276 28.6927 123.885 28.5781 123.391 28.5781C123.062 28.5781 122.76 28.6484 122.484 28.7891C122.208 28.9245 121.971 29.1276 121.773 29.3984C121.576 29.6693 121.422 30 121.312 30.3906C121.203 30.7812 121.148 31.2318 121.148 31.7422V32.0703C121.148 32.4714 121.203 32.849 121.312 33.2031C121.427 33.5521 121.591 33.8594 121.805 34.125C122.023 34.3906 122.286 34.599 122.594 34.75C122.906 34.901 123.26 34.9766 123.656 34.9766C124.167 34.9766 124.599 34.8724 124.953 34.6641C125.307 34.4557 125.617 34.1771 125.883 33.8281L126.758 34.5234C126.576 34.7995 126.344 35.0625 126.062 35.3125C125.781 35.5625 125.435 35.7656 125.023 35.9219C124.617 36.0781 124.135 36.1562 123.578 36.1562ZM133.477 33.7578C133.477 33.5495 133.43 33.3568 133.336 33.1797C133.247 32.9974 133.062 32.8333 132.781 32.6875C132.505 32.5365 132.089 32.4062 131.531 32.2969C131.062 32.1979 130.638 32.0807 130.258 31.9453C129.883 31.8099 129.562 31.6458 129.297 31.4531C129.036 31.2604 128.836 31.0339 128.695 30.7734C128.555 30.513 128.484 30.2083 128.484 29.8594C128.484 29.526 128.557 29.2109 128.703 28.9141C128.854 28.6172 129.065 28.3542 129.336 28.125C129.612 27.8958 129.943 27.7161 130.328 27.5859C130.714 27.4557 131.143 27.3906 131.617 27.3906C132.294 27.3906 132.872 27.5104 133.352 27.75C133.831 27.9896 134.198 28.3099 134.453 28.7109C134.708 29.1068 134.836 29.5469 134.836 30.0312H133.391C133.391 29.7969 133.32 29.5703 133.18 29.3516C133.044 29.1276 132.844 28.9427 132.578 28.7969C132.318 28.651 131.997 28.5781 131.617 28.5781C131.216 28.5781 130.891 28.6406 130.641 28.7656C130.396 28.8854 130.216 29.0391 130.102 29.2266C129.992 29.4141 129.938 29.612 129.938 29.8203C129.938 29.9766 129.964 30.1172 130.016 30.2422C130.073 30.362 130.172 30.474 130.312 30.5781C130.453 30.6771 130.651 30.7708 130.906 30.8594C131.161 30.9479 131.487 31.0365 131.883 31.125C132.576 31.2812 133.146 31.4688 133.594 31.6875C134.042 31.9062 134.375 32.1745 134.594 32.4922C134.812 32.8099 134.922 33.1953 134.922 33.6484C134.922 34.0182 134.844 34.3568 134.688 34.6641C134.536 34.9714 134.315 35.237 134.023 35.4609C133.737 35.6797 133.393 35.8516 132.992 35.9766C132.596 36.0964 132.151 36.1562 131.656 36.1562C130.911 36.1562 130.281 36.0234 129.766 35.7578C129.25 35.4922 128.859 35.1484 128.594 34.7266C128.328 34.3047 128.195 33.8594 128.195 33.3906H129.648C129.669 33.7865 129.784 34.1016 129.992 34.3359C130.201 34.5651 130.456 34.7292 130.758 34.8281C131.06 34.9219 131.359 34.9688 131.656 34.9688C132.052 34.9688 132.383 34.9167 132.648 34.8125C132.919 34.7083 133.125 34.5651 133.266 34.3828C133.406 34.2005 133.477 33.9922 133.477 33.7578ZM138.133 34.2812V35.4453C138.133 35.9193 138.013 36.4193 137.773 36.9453C137.534 37.4766 137.198 37.9193 136.766 38.2734L135.945 37.7031C136.112 37.474 136.253 37.2396 136.367 37C136.482 36.7656 136.568 36.5208 136.625 36.2656C136.688 36.0156 136.719 35.75 136.719 35.4688V34.2812H138.133ZM152.914 24.625V36H151.398L145.672 27.2266V36H144.164V24.625H145.672L151.422 33.4219V24.625H152.914ZM154.984 31.8672V31.6875C154.984 31.0781 155.073 30.513 155.25 29.9922C155.427 29.4661 155.682 29.0104 156.016 28.625C156.349 28.2344 156.753 27.9323 157.227 27.7188C157.701 27.5 158.232 27.3906 158.82 27.3906C159.414 27.3906 159.948 27.5 160.422 27.7188C160.901 27.9323 161.307 28.2344 161.641 28.625C161.979 29.0104 162.237 29.4661 162.414 29.9922C162.591 30.513 162.68 31.0781 162.68 31.6875V31.8672C162.68 32.4766 162.591 33.0417 162.414 33.5625C162.237 34.0833 161.979 34.5391 161.641 34.9297C161.307 35.3151 160.904 35.6172 160.43 35.8359C159.961 36.0495 159.43 36.1562 158.836 36.1562C158.242 36.1562 157.708 36.0495 157.234 35.8359C156.76 35.6172 156.354 35.3151 156.016 34.9297C155.682 34.5391 155.427 34.0833 155.25 33.5625C155.073 33.0417 154.984 32.4766 154.984 31.8672ZM156.43 31.6875V31.8672C156.43 32.2891 156.479 32.6875 156.578 33.0625C156.677 33.4323 156.826 33.7604 157.023 34.0469C157.227 34.3333 157.479 34.5599 157.781 34.7266C158.083 34.888 158.435 34.9688 158.836 34.9688C159.232 34.9688 159.578 34.888 159.875 34.7266C160.177 34.5599 160.427 34.3333 160.625 34.0469C160.823 33.7604 160.971 33.4323 161.07 33.0625C161.174 32.6875 161.227 32.2891 161.227 31.8672V31.6875C161.227 31.2708 161.174 30.8776 161.07 30.5078C160.971 30.1328 160.82 29.8021 160.617 29.5156C160.419 29.224 160.169 28.9948 159.867 28.8281C159.57 28.6615 159.221 28.5781 158.82 28.5781C158.424 28.5781 158.076 28.6615 157.773 28.8281C157.477 28.9948 157.227 29.224 157.023 29.5156C156.826 29.8021 156.677 30.1328 156.578 30.5078C156.479 30.8776 156.43 31.2708 156.43 31.6875ZM165.938 28.875V36H164.492V27.5469H165.898L165.938 28.875ZM168.578 27.5L168.57 28.8438C168.451 28.8177 168.336 28.8021 168.227 28.7969C168.122 28.7865 168.003 28.7812 167.867 28.7812C167.534 28.7812 167.24 28.8333 166.984 28.9375C166.729 29.0417 166.513 29.1875 166.336 29.375C166.159 29.5625 166.018 29.7865 165.914 30.0469C165.815 30.3021 165.75 30.5833 165.719 30.8906L165.312 31.125C165.312 30.6146 165.362 30.1354 165.461 29.6875C165.565 29.2396 165.724 28.8438 165.938 28.5C166.151 28.151 166.422 27.8802 166.75 27.6875C167.083 27.4896 167.479 27.3906 167.938 27.3906C168.042 27.3906 168.161 27.4036 168.297 27.4297C168.432 27.4505 168.526 27.474 168.578 27.5ZM175.086 34.3594V24H176.539V36H175.211L175.086 34.3594ZM169.398 31.8672V31.7031C169.398 31.0573 169.477 30.4714 169.633 29.9453C169.794 29.4141 170.021 28.9583 170.312 28.5781C170.609 28.1979 170.961 27.9062 171.367 27.7031C171.779 27.4948 172.237 27.3906 172.742 27.3906C173.273 27.3906 173.737 27.4844 174.133 27.6719C174.534 27.8542 174.872 28.1224 175.148 28.4766C175.43 28.8255 175.651 29.2474 175.812 29.7422C175.974 30.237 176.086 30.7969 176.148 31.4219V32.1406C176.091 32.7604 175.979 33.3177 175.812 33.8125C175.651 34.3073 175.43 34.7292 175.148 35.0781C174.872 35.4271 174.534 35.6953 174.133 35.8828C173.732 36.0651 173.263 36.1562 172.727 36.1562C172.232 36.1562 171.779 36.0495 171.367 35.8359C170.961 35.6224 170.609 35.3229 170.312 34.9375C170.021 34.5521 169.794 34.099 169.633 33.5781C169.477 33.0521 169.398 32.4818 169.398 31.8672ZM170.852 31.7031V31.8672C170.852 32.2891 170.893 32.6849 170.977 33.0547C171.065 33.4245 171.201 33.75 171.383 34.0312C171.565 34.3125 171.797 34.5339 172.078 34.6953C172.359 34.8516 172.695 34.9297 173.086 34.9297C173.565 34.9297 173.958 34.8281 174.266 34.625C174.578 34.4219 174.828 34.1536 175.016 33.8203C175.203 33.487 175.349 33.125 175.453 32.7344V30.8516C175.391 30.5651 175.299 30.2891 175.18 30.0234C175.065 29.7526 174.914 29.513 174.727 29.3047C174.544 29.0911 174.318 28.9219 174.047 28.7969C173.781 28.6719 173.466 28.6094 173.102 28.6094C172.706 28.6094 172.365 28.6927 172.078 28.8594C171.797 29.0208 171.565 29.2448 171.383 29.5312C171.201 29.8125 171.065 30.1406 170.977 30.5156C170.893 30.8854 170.852 31.2812 170.852 31.7031ZM183.711 33.7578C183.711 33.5495 183.664 33.3568 183.57 33.1797C183.482 32.9974 183.297 32.8333 183.016 32.6875C182.74 32.5365 182.323 32.4062 181.766 32.2969C181.297 32.1979 180.872 32.0807 180.492 31.9453C180.117 31.8099 179.797 31.6458 179.531 31.4531C179.271 31.2604 179.07 31.0339 178.93 30.7734C178.789 30.513 178.719 30.2083 178.719 29.8594C178.719 29.526 178.792 29.2109 178.938 28.9141C179.089 28.6172 179.299 28.3542 179.57 28.125C179.846 27.8958 180.177 27.7161 180.562 27.5859C180.948 27.4557 181.378 27.3906 181.852 27.3906C182.529 27.3906 183.107 27.5104 183.586 27.75C184.065 27.9896 184.432 28.3099 184.688 28.7109C184.943 29.1068 185.07 29.5469 185.07 30.0312H183.625C183.625 29.7969 183.555 29.5703 183.414 29.3516C183.279 29.1276 183.078 28.9427 182.812 28.7969C182.552 28.651 182.232 28.5781 181.852 28.5781C181.451 28.5781 181.125 28.6406 180.875 28.7656C180.63 28.8854 180.451 29.0391 180.336 29.2266C180.227 29.4141 180.172 29.612 180.172 29.8203C180.172 29.9766 180.198 30.1172 180.25 30.2422C180.307 30.362 180.406 30.474 180.547 30.5781C180.688 30.6771 180.885 30.7708 181.141 30.8594C181.396 30.9479 181.721 31.0365 182.117 31.125C182.81 31.2812 183.38 31.4688 183.828 31.6875C184.276 31.9062 184.609 32.1745 184.828 32.4922C185.047 32.8099 185.156 33.1953 185.156 33.6484C185.156 34.0182 185.078 34.3568 184.922 34.6641C184.771 34.9714 184.549 35.237 184.258 35.4609C183.971 35.6797 183.628 35.8516 183.227 35.9766C182.831 36.0964 182.385 36.1562 181.891 36.1562C181.146 36.1562 180.516 36.0234 180 35.7578C179.484 35.4922 179.094 35.1484 178.828 34.7266C178.562 34.3047 178.43 33.8594 178.43 33.3906H179.883C179.904 33.7865 180.018 34.1016 180.227 34.3359C180.435 34.5651 180.69 34.7292 180.992 34.8281C181.294 34.9219 181.594 34.9688 181.891 34.9688C182.286 34.9688 182.617 34.9167 182.883 34.8125C183.154 34.7083 183.359 34.5651 183.5 34.3828C183.641 34.2005 183.711 33.9922 183.711 33.7578ZM190.594 27.5469V28.6562H186.023V27.5469H190.594ZM187.57 25.4922H189.016V33.9062C189.016 34.1927 189.06 34.4089 189.148 34.5547C189.237 34.7005 189.352 34.7969 189.492 34.8438C189.633 34.8906 189.784 34.9141 189.945 34.9141C190.065 34.9141 190.19 34.9036 190.32 34.8828C190.456 34.8568 190.557 34.8359 190.625 34.8203L190.633 36C190.518 36.0365 190.367 36.0703 190.18 36.1016C189.997 36.138 189.776 36.1562 189.516 36.1562C189.161 36.1562 188.836 36.0859 188.539 35.9453C188.242 35.8047 188.005 35.5703 187.828 35.2422C187.656 34.9089 187.57 34.4609 187.57 33.8984V25.4922ZM192.344 35.2344C192.344 34.9896 192.419 34.7839 192.57 34.6172C192.727 34.4453 192.951 34.3594 193.242 34.3594C193.534 34.3594 193.755 34.4453 193.906 34.6172C194.062 34.7839 194.141 34.9896 194.141 35.2344C194.141 35.474 194.062 35.6771 193.906 35.8438C193.755 36.0104 193.534 36.0938 193.242 36.0938C192.951 36.0938 192.727 36.0104 192.57 35.8438C192.419 35.6771 192.344 35.474 192.344 35.2344ZM195.758 35.2344C195.758 34.9896 195.833 34.7839 195.984 34.6172C196.141 34.4453 196.365 34.3594 196.656 34.3594C196.948 34.3594 197.169 34.4453 197.32 34.6172C197.477 34.7839 197.555 34.9896 197.555 35.2344C197.555 35.474 197.477 35.6771 197.32 35.8438C197.169 36.0104 196.948 36.0938 196.656 36.0938C196.365 36.0938 196.141 36.0104 195.984 35.8438C195.833 35.6771 195.758 35.474 195.758 35.2344ZM199 35.2344C199 34.9896 199.076 34.7839 199.227 34.6172C199.383 34.4453 199.607 34.3594 199.898 34.3594C200.19 34.3594 200.411 34.4453 200.562 34.6172C200.719 34.7839 200.797 34.9896 200.797 35.2344C200.797 35.474 200.719 35.6771 200.562 35.8438C200.411 36.0104 200.19 36.0938 199.898 36.0938C199.607 36.0938 199.383 36.0104 199.227 35.8438C199.076 35.6771 199 35.474 199 35.2344Z" fill="black"/>
</svg>
