<svg width="46" height="44" viewBox="0 0 46 44" fill="none" xmlns="http://www.w3.org/2000/svg">
<g clip-path="url(#clip0_5145_12052)">
<path fill-rule="evenodd" clip-rule="evenodd" d="M0 13.4414H11.2504V15.6404H0V13.4414ZM0 19.5977H8.65417V21.7966H0V19.5977ZM12.1158 25.7559H0V27.9549H12.1158V25.7559Z" fill="black"/>
<path fill-rule="evenodd" clip-rule="evenodd" d="M24.2734 22.5841C24.796 21.6739 25.0954 20.6151 25.0954 19.4853C25.0954 16.0848 22.3832 13.3281 19.0375 13.3281C15.6918 13.3281 12.9796 16.0848 12.9796 19.4853C12.9796 22.8858 15.6918 25.6425 19.0375 25.6425C20.3318 25.6425 21.5313 25.2299 22.5156 24.5271L25.8715 27.938C26.2588 28.3316 26.8868 28.3316 27.2742 27.938L27.7073 27.4977C28.0947 27.104 28.0947 26.4657 27.7073 26.072L24.3139 22.623C24.3007 22.6096 24.2872 22.5966 24.2734 22.5841ZM19.0375 23.1796C17.0301 23.1796 15.4027 21.5256 15.4027 19.4853C15.4027 17.445 17.0301 15.791 19.0375 15.791C21.0449 15.791 22.6722 17.445 22.6722 19.4853C22.6722 21.5256 21.0449 23.1796 19.0375 23.1796Z" fill="black"/>
</g>
<defs>
<clipPath id="clip0_5145_12052">
<rect width="28" height="16" fill="white" transform="translate(0 12.75)"/>
</clipPath>
</defs>
</svg>
