<svg xmlns="http://www.w3.org/2000/svg" width="162" height="32" fill="none"><path fill="#171b26" d="M0 13.75V9.71h3.512v-1.4l4.455-5.785h2.168V9.71h4.267v4.04h-4.267v10.238q0 1.974.425 2.594.447.62 1.838.62.778 0 1.768-.321v4.614a20 20 0 0 1-3.983.413q-1.155 0-2.192-.16-3.042-.483-3.937-2.801a7.4 7.4 0 0 1-.448-1.837q-.094-.895-.094-3.351V13.75zm23.961 3.942v3.87H15.11v-3.87zM38.09 9.044q2.358 0 4.243.666 3.724 1.332 5.563 4.66 1.414 2.57 1.414 6.29 0 5.303-3.347 8.47Q42.922 32 38.067 32q-5.162 0-8.25-3.214-3.04-3.145-3.04-8.287 0-5.026 2.946-8.103 3.206-3.352 8.367-3.352m-.282 4.523q-1.014 0-1.792.482-2.616 1.584-2.616 6.45 0 1.584.306 3.03.4 1.814 1.532 2.893 1.132 1.056 2.64 1.056a3.6 3.6 0 0 0 1.745-.437q2.663-1.446 2.663-6.45 0-1.538-.283-2.915-.377-1.882-1.532-2.985-1.131-1.125-2.663-1.124m14.519 17.767V9.71h6.67v1.997q2.334-2.663 6.176-2.663 4.455 0 6.506 2.893 1.273 1.79 1.273 5.6v13.797h-6.624V18.548q0-2.25-.518-3.168-.825-1.446-2.71-1.446-2.453 0-3.56 2.318-.59 1.194-.59 4.43v10.652zm25.857 0V0h6.624v31.334zM90.606 6.267V0h7.024v6.267zm.189 25.067V9.71h6.623v21.624zm12.115 0V9.71h6.671v1.997q2.333-2.663 6.175-2.663 4.455 0 6.506 2.893 1.272 1.79 1.273 5.6v13.797h-6.624V18.548q0-2.25-.518-3.168-.825-1.446-2.711-1.446-2.452 0-3.559 2.318-.59 1.194-.589 4.43v10.652zm45.374-9.251h-14.755q.282 5.578 4.172 5.578 2.38 0 3.37-2.295h6.647q-.47 1.721-1.744 3.213-2.875 3.42-8.179 3.42-5.067 0-8.085-2.96-3.182-3.146-3.182-8.402 0-4.867 2.899-8.103 3.113-3.49 8.085-3.49 3.96 0 6.718 2.319 2.004 1.698 2.97 4.247.966 2.524 1.084 6.473m-7-3.856q-.142-1.493-.59-2.525-1.013-2.342-3.229-2.342-1.06 0-1.862.597-1.744 1.24-2.051 4.27z"/><path fill="#e20074" d="M153.29 23.499h8.046v7.835h-8.046z"/></svg>